<?xml version="1.0" encoding="utf-8"?>
<!-- Generator: Adobe Illustrator 19.2.1, SVG Export Plug-In . SVG Version: 6.00 Build 0)  -->
<svg version="1.1" id="livetype" xmlns="http://www.w3.org/2000/svg" xmlns:xlink="http://www.w3.org/1999/xlink" x="0px" y="0px"
	 viewBox="0 0 119.7 40" style="enable-background:new 0 0 119.7 40;" xml:space="preserve">
<g>
	<path style="fill:#EF4051;" d="M60.8,22.9c-1.4,0-2.4,1.2-2.4,3c0,1.8,1,3,2.4,3c1.4,0,2.4-1.2,2.4-3
		C63.2,24.1,62.3,22.9,60.8,22.9z"/>
	<path style="fill:#EF4051;" d="M84.9,11.5c0-0.4-0.2-0.6-0.7-0.6h-1V12h0.9C84.7,12,84.9,11.8,84.9,11.5z"/>
	<path style="fill:#EF4051;" d="M50.9,22.9c-1.4,0-2.4,1.2-2.4,3c0,1.8,1,3,2.4,3c1.4,0,2.4-1.2,2.4-3
		C53.2,24.1,52.3,22.9,50.9,22.9z"/>
	<polygon style="fill:#EF4051;" points="39.9,20.1 38.1,25.6 41.8,25.6 40,20.1 	"/>
	<path style="fill:#EF4051;" d="M84.2,12.7h-0.9V14h1.1c0.5,0,0.8-0.2,0.8-0.7C85.1,12.9,84.8,12.7,84.2,12.7z"/>
	<path style="fill:#EF4051;" d="M52.3,14c0.8,0,1.2-0.6,1.2-1.5c0-1-0.5-1.5-1.2-1.5c-0.7,0-1.2,0.6-1.2,1.5
		C51.1,13.4,51.6,14,52.3,14z"/>
	<path style="fill:#EF4051;" d="M76.7,10.9c-0.7,0-1.1,0.5-1.2,1.2h2.3C77.7,11.3,77.3,10.9,76.7,10.9z"/>
	<path style="fill:#EF4051;" d="M41.7,13.4c0,0.4,0.4,0.6,0.8,0.6c0.7,0,1.2-0.4,1.2-1v-0.4l-1.1,0.1C42,12.8,41.7,13,41.7,13.4z"/>
	<path style="fill:#EF4051;" d="M119.7,8.4c0-0.3,0-0.6,0-0.9c0-0.7-0.1-1.3-0.2-2c-0.1-0.7-0.3-1.3-0.6-1.9
		c-0.3-0.6-0.7-1.1-1.2-1.6c-0.5-0.5-1-0.9-1.6-1.2c-0.6-0.3-1.2-0.5-1.9-0.6c-0.7-0.1-1.3-0.2-2-0.2c-0.3,0-0.6,0-0.9,0
		c-0.4,0-0.7,0-1.1,0H9.5C9.2,0,8.8,0,8.4,0C8.1,0,7.8,0,7.5,0c-0.7,0-1.3,0.1-2,0.2C4.8,0.3,4.2,0.5,3.6,0.8C3,1.1,2.5,1.5,2,2
		C1.5,2.5,1.1,3,0.8,3.6C0.5,4.2,0.3,4.9,0.2,5.5C0.1,6.2,0,6.9,0,7.5c0,0.3,0,0.6,0,0.9c0,0.4,0,0.7,0,1.1v20.9c0,0.4,0,0.7,0,1.1
		c0,0.3,0,0.6,0,0.9c0,0.7,0.1,1.3,0.2,2c0.1,0.7,0.3,1.3,0.6,1.9C1.1,37,1.5,37.5,2,38c0.5,0.5,1,0.9,1.6,1.2
		c0.6,0.3,1.2,0.5,1.9,0.6c0.7,0.1,1.3,0.2,2,0.2c0.3,0,0.6,0,0.9,0c0.4,0,0.7,0,1.1,0h100.6c0.4,0,0.7,0,1.1,0c0.3,0,0.6,0,0.9,0
		c0.7,0,1.3-0.1,2-0.2c0.7-0.1,1.3-0.3,1.9-0.6c0.6-0.3,1.1-0.7,1.6-1.2c0.5-0.5,0.9-1,1.2-1.6c0.3-0.6,0.5-1.2,0.6-1.9
		c0.1-0.7,0.2-1.3,0.2-2c0-0.3,0-0.6,0-0.9c0-0.4,0-0.7,0-1.1V9.5C119.7,9.2,119.7,8.8,119.7,8.4z M76.7,10.1c1.3,0,2,0.9,2,2.3v0.3
		h-3.2v0c0,0.8,0.5,1.3,1.2,1.3c0.5,0,0.9-0.2,1.1-0.5h0.9c-0.2,0.8-0.9,1.3-2,1.3c-1.3,0-2.1-0.9-2.1-2.3
		C74.6,11,75.4,10.1,76.7,10.1z M70.1,10.2h3.7v0.7h-1.4v3.8h-0.9v-3.8h-1.4V10.2z M61.9,12.7h-0.7V12h0.7c0.5,0,0.8-0.2,0.8-0.6
		c0-0.3-0.3-0.6-0.8-0.6c-0.5,0-0.9,0.2-0.9,0.6h-0.9c0.1-0.8,0.8-1.3,1.8-1.3c1.1,0,1.7,0.5,1.7,1.2c0,0.5-0.3,0.8-0.7,0.9v0.1
		c0.6,0.1,0.9,0.5,0.9,1c0,0.9-0.7,1.4-1.8,1.4c-1,0-1.8-0.5-1.9-1.4H61c0.1,0.4,0.5,0.6,1,0.6c0.6,0,1-0.3,1-0.7
		C62.9,12.9,62.6,12.7,61.9,12.7z M50.2,10.2h0.9v0.7h0.1c0.3-0.5,0.8-0.8,1.4-0.8c1.1,0,1.9,0.9,1.9,2.3c0,1.4-0.7,2.3-1.9,2.3
		c-0.6,0-1.2-0.3-1.4-0.8h-0.1v2.2h-0.9V10.2z M42.8,10.9c-0.5,0-0.8,0.2-0.9,0.5H41c0.1-0.8,0.8-1.3,1.8-1.3c1.1,0,1.8,0.6,1.8,1.5
		v3.1h-0.9v-0.6h-0.1c-0.3,0.5-0.8,0.7-1.4,0.7c-0.9,0-1.5-0.5-1.5-1.3c0-0.8,0.6-1.3,1.7-1.3l1.2-0.1v-0.4
		C43.7,11.1,43.4,10.9,42.8,10.9z M37.6,12.1h-0.8v-0.8h0.8c0.7,0,1.1-0.4,1.1-1c0-0.6-0.4-0.9-1.1-0.9c-0.7,0-1.2,0.4-1.2,0.9h-0.9
		c0.1-1.1,0.9-1.7,2.1-1.7c1.2,0,2,0.7,2,1.6c0,0.7-0.4,1.2-1.1,1.4v0.1c0.8,0.1,1.3,0.6,1.3,1.4c0,1-1,1.8-2.2,1.8
		c-1.3,0-2.2-0.7-2.2-1.8h0.9c0.1,0.6,0.6,0.9,1.4,0.9s1.3-0.4,1.3-1C38.9,12.4,38.4,12.1,37.6,12.1z M20,9.6
		c0.8-0.9,2.2-1.7,3.3-1.7c0.1,1.3-0.4,2.7-1.2,3.6c-0.8,1-2.1,1.7-3.4,1.6C18.6,11.8,19.3,10.4,20,9.6z M26.5,27.7
		c-0.9,1.4-1.9,2.8-3.5,2.8c-1.5,0-2-0.9-3.7-0.9c-1.7,0-2.3,0.9-3.7,0.9c-1.5,0.1-2.6-1.5-3.6-2.9c-1.9-2.8-3.4-7.9-1.4-11.4
		c1-1.7,2.8-2.8,4.7-2.8c1.5,0,2.8,1,3.8,1c0.9,0,2.6-1.2,4.3-1c0.7,0,2.8,0.3,4.2,2.2C27.3,15.6,25,17,25,19.9c0,3.4,3,4.6,3,4.6
		C28,24.5,27.6,26.1,26.5,27.7z M43.4,30.5l-1.1-3.4h-4.7l-1.1,3.4h-2l4.5-12.4H41l4.5,12.4H43.4z M46.1,10.2h3v0.7H47v3.8h-0.9
		V10.2z M51.4,30.6c-1.3,0-2.3-0.6-2.8-1.6h0v4.5h-1.9v-12h1.8v1.5h0c0.5-1,1.6-1.6,2.9-1.6c2.3,0,3.8,1.8,3.8,4.6
		C55.2,28.8,53.7,30.6,51.4,30.6z M55.6,16.3v-0.8c0.1,0,0.2,0,0.3,0c0.4,0,0.7-0.2,0.8-0.6l0.1-0.2l-1.6-4.5h1l1.1,3.6h0.1l1.1-3.6
		h0.9l-1.7,4.7c-0.4,1.1-0.8,1.4-1.7,1.4C55.9,16.3,55.7,16.3,55.6,16.3z M61.3,30.6c-1.3,0-2.3-0.6-2.8-1.6h0v4.5h-1.9v-12h1.8v1.5
		h0c0.5-1,1.6-1.6,2.9-1.6c2.3,0,3.8,1.8,3.8,4.6C65.1,28.8,63.6,30.6,61.3,30.6z M69,14.7h-0.9v-3.1H68l-2.1,3.1h-0.9v-4.5h0.9v3.1
		H66l2.1-3.1H69V14.7z M74.5,30.7c-2.8,0-4.6-1.4-4.7-3.7h1.9c0.1,1.2,1.3,2,3,2c1.6,0,2.7-0.8,2.7-1.9c0-1-0.7-1.5-2.3-1.9
		l-1.6-0.4c-2.3-0.6-3.3-1.6-3.3-3.3c0-2.1,1.9-3.6,4.5-3.6c2.6,0,4.4,1.5,4.5,3.6h-1.9c-0.1-1.2-1.1-2-2.6-2s-2.5,0.8-2.5,1.9
		c0,0.9,0.7,1.4,2.3,1.8l1.4,0.3c2.5,0.6,3.6,1.6,3.6,3.4C79.3,29.2,77.5,30.7,74.5,30.7z M85.1,22.9h-1.7v5c0,0.8,0.3,1.1,1.1,1.1
		c0.2,0,0.5,0,0.6,0v1.5c-0.2,0.1-0.6,0.1-1,0.1c-1.8,0-2.5-0.7-2.5-2.4v-5.2h-1.3v-1.5h1.3v-2.1h1.9v2.1h1.7V22.9z M84.4,14.7h-2.1
		v-4.5h2c0.9,0,1.4,0.4,1.4,1.1c0,0.5-0.3,0.9-0.8,1v0.1c0.6,0.1,1,0.5,1,1C86,14.2,85.4,14.7,84.4,14.7z M90.4,30.6
		c-2.6,0-4.3-1.8-4.3-4.6c0-2.8,1.7-4.6,4.3-4.6c2.6,0,4.3,1.8,4.3,4.6C94.7,28.8,93,30.6,90.4,30.6z M100.8,23.2
		c-0.1-0.1-0.5-0.1-0.8-0.1c-1.2,0-1.9,0.8-1.9,2.1v5.4h-1.9v-9.1H98V23h0c0.3-1,1.1-1.6,2.2-1.6c0.3,0,0.5,0,0.6,0.1V23.2z
		 M109.5,26.4h-6.4v0.1c0,1.5,1,2.6,2.4,2.6c1,0,1.8-0.5,2.1-1.3h1.8c-0.2,1.6-1.9,2.8-3.9,2.8c-2.6,0-4.3-1.8-4.3-4.6
		c0-2.8,1.6-4.7,4.2-4.7c2.5,0,4.1,1.7,4.1,4.5V26.4z"/>
	<path style="fill:#EF4051;" d="M105.4,22.8c-1.3,0-2.2,0.9-2.3,2.3h4.5C107.6,23.7,106.7,22.8,105.4,22.8z"/>
	<path style="fill:#EF4051;" d="M90.4,22.9C88.9,22.9,88,24,88,26c0,2,0.9,3.1,2.4,3.1s2.4-1.1,2.4-3.1C92.8,24,91.9,22.9,90.4,22.9
		z"/>
</g>
</svg>
